<svg width="219" height="55" viewBox="0 0 219 55" fill="none" xmlns="http://www.w3.org/2000/svg">
<path d="M78.8429 18.5649L76.8276 18.2424V16.868L83.5384 15.405L84.0624 15.7355L83.9173 20.2819V26.7065L84.014 27.1096V32.1759C84.014 34.1912 84.0463 37.5405 84.1148 39.0076H78.7462C78.8107 37.5405 78.8429 34.1912 78.8429 32.1759V18.5649ZM85.594 37.5083V39.0238H77.0332V37.5083L80.048 36.8473H82.5308L85.594 37.5083ZM93.8566 28.4034V32.192C93.8566 34.2718 93.8888 37.5567 93.9533 39.0238H88.5766C88.6411 37.5567 88.6733 34.2718 88.6733 32.192V28.7863C88.6733 26.6783 88.2461 25.9649 86.9281 25.9649C85.7189 25.9649 84.3204 26.9725 82.9822 28.5847H81.8053V26.2511H83.9173L82.6799 27.1741C84.9612 23.8811 86.7588 22.8292 89.0925 22.8292C91.9783 22.813 93.8566 24.651 93.8566 28.4074V28.4034ZM92.3451 36.8674L95.5292 37.5164V39.0318H86.9442V37.5164L89.8865 36.8674H92.3451Z" fill="white"/>
<path d="M103.264 29.963C104.606 29.56 106.912 28.9635 108.447 28.5967V29.959C107.002 30.285 105.583 30.7188 104.203 31.2568C102.732 31.8815 101.785 32.9738 101.785 34.5054C101.785 36.1176 102.643 36.8874 103.74 36.8874C104.36 36.8874 104.872 36.6295 105.912 35.8718L107.218 34.8883L107.557 35.3599L106.182 36.8471C104.606 38.5198 103.595 39.5234 101.237 39.5234C98.7216 39.5234 96.9724 38.0402 96.9724 35.3639C96.9724 33.0464 98.2501 31.418 103.264 29.963ZM105.735 36.3635V28.2178C105.735 25.336 105.179 24.4856 103.103 24.4856C102.071 24.5022 101.045 24.6594 100.056 24.9531L102.297 23.6875L102.055 25.9648C101.97 28.1291 100.922 28.9997 99.6688 28.9997C99.3842 29.0208 99.0983 28.985 98.8277 28.8943C98.5571 28.8037 98.3073 28.66 98.0929 28.4717C97.8915 28.2576 97.7378 28.0032 97.6419 27.7253C97.546 27.4474 97.5102 27.1523 97.5367 26.8595C97.5568 26.5774 97.6737 25.7834 98.9474 24.7435C101.398 22.7283 104.497 22.8089 104.949 22.825C106.468 22.8774 108.056 22.9177 109.318 24.1389C110.325 25.1224 110.773 26.6822 110.773 28.9433V36.2385C110.773 36.8794 111.039 37.1897 111.506 37.1897C111.845 37.1897 112.111 37.0124 112.49 36.4723L113.352 37.0487C112.575 38.8221 111.414 39.5032 109.439 39.5032C107.238 39.4911 106.021 38.3304 105.739 36.3635H105.735Z" fill="white"/>
<path d="M116.484 32.1957V30.2893C116.484 28.5038 116.452 27.8468 116.387 26.545L114.392 26.2507V24.9731L120.813 22.8127L121.369 23.1593L121.667 27.1536V32.1957C121.667 34.211 121.7 37.5604 121.764 39.0275H116.387C116.452 37.5604 116.484 34.211 116.484 32.1957ZM114.654 37.512L117.774 36.847H121.196L124.303 37.4959V39.0113H114.654V37.512ZM119.261 27.8992H121.704L121.264 28.7859C121.837 24.7998 124.086 22.8167 126.045 22.8167C126.732 22.7787 127.408 23.0057 127.933 23.4512C128.458 23.8966 128.792 24.5264 128.866 25.2109C128.797 26.9037 127.858 27.867 126.556 27.867C125.577 27.867 124.815 27.3873 124.041 26.3596L123.094 25.1182L124.408 25.5897C122.996 26.7324 122.019 28.3263 121.643 30.1039L119.257 29.8701L119.261 27.8992Z" fill="white"/>
<path d="M143.936 29.681C143.948 30.2694 143.887 30.857 143.754 31.4303H136.596V29.7133H137.12C138.68 29.7133 139.087 29.1289 139.087 27.6779C139.087 25.5457 138.063 24.4857 136.882 24.4857C135.528 24.4857 134.295 25.9609 134.295 30.6605C134.295 34.6265 136.262 36.416 138.692 36.416C139.436 36.4208 140.172 36.2673 140.851 35.9657C141.531 35.6641 142.139 35.2214 142.634 34.6668L143.758 35.7228C142.424 38.266 140.083 39.5195 136.935 39.5195C132.203 39.5195 128.833 36.4241 128.833 31.1764C128.833 25.7513 133.013 22.813 137.209 22.813C141.505 22.813 143.936 25.7432 143.936 29.681Z" fill="white"/>
<path d="M162.057 39.0278C162.121 37.5607 162.154 34.2113 162.154 32.1961V30.6443C162.154 28.8548 162.121 27.8471 162.057 26.5453L160.042 26.2511V24.9734L166.853 22.813L167.414 23.1596L167.317 27.8794V32.1961C167.317 34.2113 167.349 37.5607 167.414 39.0278H162.057ZM168.989 37.5123V39.0278H160.36V37.5123L163.375 36.8634H165.83L168.989 37.5123ZM161.924 17.8152C161.924 16.2957 163.133 15.2236 164.681 15.2236C166.229 15.2236 167.438 16.2957 167.438 17.8152C167.438 19.3347 166.229 20.4028 164.681 20.4028C163.133 20.4028 161.924 19.3226 161.924 17.8152Z" fill="white"/>
<path d="M182.58 41.994C182.58 41.0468 181.952 40.1279 180.19 40.1279H176.772C175.354 40.1279 174.132 40.0029 173.294 39.6321C172.702 39.3501 172.191 38.9241 171.806 38.3932C171.422 37.8623 171.177 37.2433 171.093 36.5931C170.928 34.9003 172.149 33.4412 174.173 31.8492L175.027 32.3852C174.555 32.9368 174.3 33.642 174.31 34.3683C174.31 35.126 174.81 35.5976 176.196 35.5976H179.997C184.954 35.5976 186.683 37.5241 186.683 40.3455C186.683 43.6586 183.632 46.9435 176.885 46.8911C174.806 46.8911 171.928 46.4598 170.787 44.5292C170.632 44.2428 170.541 43.9256 170.522 43.6002C170.503 43.2748 170.557 42.9493 170.678 42.6469C171.351 41.0347 174.056 41.8408 174.056 41.8408C173.746 42.2167 173.583 42.692 173.596 43.179C173.596 44.3478 174.669 45.4844 177.002 45.6618C180.674 45.9439 182.58 43.4047 182.58 41.994ZM177.679 22.8128C182.31 22.8128 184.479 24.9893 184.479 28.0524C184.479 30.9867 182.294 33.2478 177.671 33.2478C173.048 33.2478 170.864 31.0471 170.864 28.0524C170.864 25.0578 173.048 22.8128 177.679 22.8128ZM175.487 28.0524C175.487 30.3579 176.144 31.7484 177.643 31.7484C179.142 31.7484 179.9 30.3297 179.9 28.0162C179.9 25.7027 179.126 24.3645 177.687 24.3645C176.249 24.3645 175.487 25.7309 175.487 28.0363V28.0524ZM186.478 22.7402L186.986 23.0667V25.5616H182.322V24.4975L186.478 22.7402Z" fill="white"/>
<path d="M189.94 18.5649L187.925 18.2424V16.868L194.635 15.405L195.159 15.7355L195.03 20.2819V26.7065L195.127 27.1096V32.1759C195.127 34.1912 195.159 37.5405 195.224 39.0076H189.843C189.908 37.5405 189.94 34.1912 189.94 32.1759V18.5649ZM196.691 37.5083V39.0238H188.13V37.5083L191.129 36.8473H193.608L196.691 37.5083ZM204.954 28.4034V32.192C204.954 34.2718 204.986 37.5567 205.05 39.0238H199.674C199.738 37.5567 199.77 34.2718 199.77 32.192V28.7863C199.77 26.6783 199.339 25.9649 198.021 25.9649C196.812 25.9649 195.413 26.9725 194.079 28.5847H192.902V26.2511H195.03L193.777 27.1741C196.058 23.8811 197.856 22.8292 200.19 22.8292C203.055 22.813 204.954 24.651 204.954 28.4074V28.4034ZM203.442 36.8674L206.622 37.5164V39.0318H198.041V37.5164L200.984 36.8674H203.442Z" fill="white"/>
<path d="M216.429 36.847C217.082 36.8129 217.704 36.5586 218.194 36.1255L219 36.9075C218.138 38.56 216.618 39.5071 214.24 39.5071C211.294 39.5071 209.565 38.1932 209.565 34.9889C209.565 33.8564 209.597 32.9737 209.597 31.7162V25.5334H207.501V23.5947L211.346 23.0989L209.48 24.4088L211.536 18.7419H214.853L214.78 24.5942V34.6423C214.772 36.1699 215.465 36.847 216.429 36.847ZM218.182 23.2924V25.5213H212.205V23.3045L218.182 23.2924Z" fill="white"/>
<path d="M71.5639 29.0724L69.9759 28.621C67.743 27.9479 67.2593 27.3272 67.2593 26.4244C67.2593 25.2475 68.2267 24.6026 69.6776 24.6026C70.2829 24.5852 70.8867 24.6711 71.4632 24.8565L71.8662 26.5856H74.8045L74.9576 24.123C73.3765 23.2679 71.6082 22.8179 69.8106 22.813C65.4255 22.813 63.0192 25.1306 63.0192 28.1293C63.0192 30.5758 64.442 32.2444 66.957 32.9659L68.7103 33.4697C70.8545 34.1025 71.4551 34.7716 71.4551 35.7913C71.4551 37.1012 70.4233 37.7098 68.5531 37.7098C67.7238 37.7133 66.902 37.5531 66.1348 37.2383L65.8124 35.3278H62.9467L62.8943 38.0081C64.6021 39.0153 66.5545 39.5327 68.537 39.5034C73.1237 39.5034 75.8967 37.5244 75.8967 34.0864C75.8887 31.6882 74.6473 29.9954 71.5639 29.0724Z" fill="white"/>
<path d="M154.399 29.0724L152.811 28.621C150.578 27.9479 150.094 27.3272 150.094 26.4244C150.094 25.2475 151.062 24.6026 152.513 24.6026C153.118 24.5852 153.722 24.6711 154.298 24.8565L154.701 26.5856H157.64L157.793 24.123C156.209 23.2667 154.438 22.8166 152.638 22.813C148.252 22.813 145.846 25.1306 145.846 28.1293C145.846 30.5758 147.269 32.2444 149.784 32.9659L151.537 33.4697C153.682 34.1025 154.282 34.7716 154.282 35.7913C154.282 37.1012 153.25 37.7098 151.38 37.7098C150.551 37.7133 149.729 37.5531 148.962 37.2383L148.639 35.3278H145.774L145.717 38.0081C147.426 39.0142 149.378 39.5314 151.36 39.5034C155.947 39.5034 158.72 37.5244 158.72 34.0864C158.724 31.6882 157.486 29.9954 154.399 29.0724Z" fill="white"/>
<circle cx="27.2535" cy="27.6961" r="24.8841" transform="rotate(5.25114 27.2535 27.6961)" fill="white"/>
<circle cx="27.2535" cy="27.6961" r="24.8841" transform="rotate(5.25114 27.2535 27.6961)" fill="url(#paint0_angular_66_19397)"/>
<path style="mix-blend-mode:color-burn" d="M25.3175 52.9062C39.1312 53.9506 51.1761 43.5991 52.2205 29.7855C53.2649 15.9718 42.9134 3.9269 29.0998 2.88246C15.2861 1.83802 3.24121 12.1895 2.19677 26.0032C1.15233 39.8169 11.5038 51.8618 25.3175 52.9062Z" fill="url(#paint1_radial_66_19397)"/>
<g filter="url(#filter0_d_66_19397)">
<path d="M28.3555 28.6065L47.6687 41.9226" stroke="white" stroke-width="0.372361" stroke-miterlimit="10"/>
</g>
<path d="M27.7261 29.1866C28.3941 29.187 28.9359 28.6458 28.9363 27.9779C28.9367 27.3099 28.3956 26.768 27.7276 26.7676C27.0596 26.7672 26.5177 27.3084 26.5173 27.9764C26.5169 28.6444 27.0581 29.1862 27.7261 29.1866Z" fill="white"/>
<defs>
<filter id="filter0_d_66_19397" x="27.2568" y="27.9568" width="21.5106" height="15.6086" filterUnits="userSpaceOnUse" color-interpolation-filters="sRGB">
<feFlood flood-opacity="0" result="BackgroundImageFix"/>
<feColorMatrix in="SourceAlpha" type="matrix" values="0 0 0 0 0 0 0 0 0 0 0 0 0 0 0 0 0 0 127 0" result="hardAlpha"/>
<feOffset dy="0.496482"/>
<feGaussianBlur stdDeviation="0.496482"/>
<feComposite in2="hardAlpha" operator="out"/>
<feColorMatrix type="matrix" values="0 0 0 0 0 0 0 0 0 0 0 0 0 0 0 0 0 0 0.56 0"/>
<feBlend mode="normal" in2="BackgroundImageFix" result="effect1_dropShadow_66_19397"/>
<feBlend mode="normal" in="SourceGraphic" in2="effect1_dropShadow_66_19397" result="shape"/>
</filter>
<radialGradient id="paint0_angular_66_19397" cx="0" cy="0" r="1" gradientUnits="userSpaceOnUse" gradientTransform="translate(27.2535 27.6961) rotate(29.5317) scale(25.1331)">
<stop stop-color="#FF2000"/>
<stop offset="0.515625" stop-color="#FFC100"/>
<stop offset="0.8125" stop-color="#DD6495"/>
<stop offset="0.927083" stop-color="#7532DD"/>
<stop offset="1" stop-color="#F8D8E3"/>
</radialGradient>
<radialGradient id="paint1_radial_66_19397" cx="0" cy="0" r="1" gradientUnits="userSpaceOnUse" gradientTransform="translate(29.1395 28.6062) rotate(4.32385) scale(25.8741 25.8741)">
<stop offset="0.51" stop-color="white" stop-opacity="0.39"/>
<stop offset="1" stop-color="#F6785A"/>
</radialGradient>
</defs>
</svg>
