<svg width="136" height="33" viewBox="0 0 136 33" fill="none" xmlns="http://www.w3.org/2000/svg">
<path d="M30.9993 21.6381C34.0835 13.9174 30.3248 5.15849 22.6042 2.07442C14.8834 -1.00966 6.12458 2.74901 3.04052 10.4696C-0.0436185 18.1903 3.71502 26.9492 11.4356 30.0332C19.1564 33.1174 27.9152 29.3587 30.9993 21.6381Z" fill="url(#paint0_radial_1988_11628)"/>
<path d="M29.6717 7.89856C28.4788 6.03779 26.8875 4.46343 25.0122 3.28846C23.137 2.11348 21.0241 1.36703 18.8253 1.10269C16.6264 0.838346 14.3962 1.06265 12.2946 1.75951C10.193 2.45636 8.27205 3.6085 6.66985 5.13322L17.0292 15.9581L29.6717 7.89856Z" fill="url(#paint1_radial_1988_11628)"/>
<mask id="mask0_1988_11628" style="mask-type:alpha" maskUnits="userSpaceOnUse" x="1" y="0" width="32" height="32">
<path d="M30.9993 21.6381C34.0835 13.9174 30.3248 5.15849 22.6042 2.07442C14.8834 -1.00966 6.12458 2.74901 3.04052 10.4696C-0.0436185 18.1903 3.71502 26.9492 11.4356 30.0332C19.1564 33.1174 27.9152 29.3587 30.9993 21.6381Z" fill="#FFB801"/>
</mask>
<g mask="url(#mask0_1988_11628)">
<path d="M16.4791 16.4576L29.7265 7.72681" stroke="white" stroke-width="1.79366" stroke-miterlimit="10" stroke-linecap="round"/>
</g>
<path d="M18.1052 16.8574C18.5494 16.2577 18.4238 15.4117 17.8246 14.9678C17.2254 14.5239 16.3795 14.6502 15.9353 15.2499C15.4909 15.8496 15.6166 16.6956 16.2158 17.1395C16.815 17.5833 17.6609 17.4571 18.1052 16.8574Z" fill="white"/>
<path d="M50.0593 9.35556L48.8366 9.15994V8.32611L52.908 7.43848L53.2259 7.63899L53.1379 10.3972V14.295L53.1965 14.5395V17.6132C53.1965 18.8359 53.2161 20.8679 53.2577 21.7579H50.0006C50.0397 20.8679 50.0593 18.8359 50.0593 17.6132V9.35556ZM54.1551 20.8483V21.7677H48.9614V20.8483L50.7904 20.4473H52.2967L54.1551 20.8483ZM59.1679 15.3245V17.623C59.1679 18.8848 59.1874 20.8777 59.2266 21.7677H55.9646C56.0037 20.8777 56.0233 18.8848 56.0233 17.623V15.5568C56.0233 14.2779 55.7641 13.8451 54.9645 13.8451C54.2309 13.8451 53.3824 14.4564 52.5706 15.4345H51.8565V14.0187H53.1379L52.3872 14.5786C53.7712 12.5809 54.8618 11.9427 56.2776 11.9427C58.0284 11.9329 59.1679 13.0479 59.1679 15.3269V15.3245ZM58.2509 20.4595L60.1827 20.8532V21.7726H54.9743V20.8532L56.7593 20.4595H58.2509Z" fill="white"/>
<path d="M64.8752 16.2705C65.6895 16.026 67.0882 15.6641 68.0198 15.4416V16.2681C67.1431 16.4659 66.2824 16.7291 65.4449 17.0555C64.5524 17.4345 63.9778 18.0971 63.9778 19.0263C63.9778 20.0044 64.4986 20.4715 65.1637 20.4715C65.5403 20.4715 65.8509 20.315 66.4817 19.8553L67.274 19.2586L67.4794 19.5447L66.6456 20.447C65.6895 21.4618 65.0757 22.0707 63.6452 22.0707C62.1194 22.0707 61.0582 21.1708 61.0582 19.5472C61.0582 18.1412 61.8333 17.1533 64.8752 16.2705ZM66.3742 20.1536V15.2117C66.3742 13.4634 66.0367 12.9474 64.7774 12.9474C64.1512 12.9575 63.5292 13.0529 62.9288 13.2311L64.2883 12.4632L64.1416 13.8448C64.0903 15.1579 63.4545 15.6861 62.694 15.6861C62.5214 15.6989 62.3479 15.6771 62.1838 15.6221C62.0196 15.5671 61.868 15.48 61.7379 15.3658C61.6158 15.2358 61.5225 15.0815 61.4643 14.9129C61.4062 14.7443 61.3844 14.5653 61.4005 14.3877C61.4127 14.2165 61.4836 13.7348 62.2563 13.1039C63.7431 11.8813 65.6235 11.9302 65.8973 11.94C66.8192 11.9717 67.7826 11.9962 68.548 12.7371C69.1593 13.3338 69.4307 14.2801 69.4307 15.6519V20.0778C69.4307 20.4666 69.5921 20.6549 69.8758 20.6549C70.0812 20.6549 70.2426 20.5473 70.4724 20.2196L70.9957 20.5693C70.5238 21.6452 69.8195 22.0585 68.6214 22.0585C67.2862 22.0511 66.5478 21.3469 66.3766 20.1536H66.3742Z" fill="white"/>
<path d="M72.8957 17.6252V16.4686C72.8957 15.3854 72.8761 14.9868 72.837 14.197L71.6266 14.0185V13.2433L75.5219 11.9327L75.8593 12.143L76.0403 14.5662V17.6252C76.0403 18.8479 76.0599 20.8799 76.099 21.77H72.837C72.8761 20.8799 72.8957 18.8479 72.8957 17.6252ZM71.7855 20.8506L73.6782 20.4471H75.7542L77.6395 20.8408V21.7602H71.7855V20.8506ZM74.5805 15.0186H76.0623L75.7958 15.5566C76.143 13.1382 77.5075 11.9351 78.6959 11.9351C79.1129 11.912 79.5229 12.0498 79.8414 12.32C80.1598 12.5903 80.3625 12.9724 80.4075 13.3876C80.366 14.4146 79.7962 14.999 79.0064 14.999C78.4122 14.999 77.95 14.708 77.4806 14.0845L76.9059 13.3314L77.7031 13.6175C76.8461 14.3107 76.2537 15.2777 76.0256 16.3562L74.578 16.2143L74.5805 15.0186Z" fill="white"/>
<path d="M89.5505 16.0998C89.5579 16.4568 89.5209 16.8132 89.4405 17.1611H85.0977V16.1194H85.4156C86.3619 16.1194 86.6089 15.7648 86.6089 14.8845C86.6089 13.591 85.9878 12.9479 85.2713 12.9479C84.4497 12.9479 83.7014 13.8429 83.7014 16.694C83.7014 19.1002 84.8947 20.1859 86.3692 20.1859C86.8203 20.1888 87.2669 20.0957 87.6792 19.9127C88.0915 19.7297 88.4602 19.4611 88.7607 19.1246L89.4429 19.7653C88.6335 21.3083 87.2128 22.0687 85.3031 22.0687C82.4323 22.0687 80.3881 20.1908 80.3881 17.007C80.3881 13.7157 82.9238 11.9331 85.4694 11.9331C88.076 11.9331 89.5505 13.7108 89.5505 16.0998Z" fill="white"/>
<path d="M100.545 21.7704C100.584 20.8803 100.603 18.8483 100.603 17.6256V16.6842C100.603 15.5985 100.584 14.9872 100.545 14.1974L99.3219 14.0189V13.2437L103.454 11.933L103.794 12.1433L103.736 15.0067V17.6256C103.736 18.8483 103.755 20.8803 103.794 21.7704H100.545ZM104.75 20.8509V21.7704H99.515V20.8509L101.344 20.4572H102.833L104.75 20.8509ZM100.464 8.90092C100.464 7.97905 101.197 7.32861 102.136 7.32861C103.075 7.32861 103.809 7.97905 103.809 8.90092C103.809 9.82278 103.075 10.4708 102.136 10.4708C101.197 10.4708 100.464 9.81545 100.464 8.90092V8.90092Z" fill="white"/>
<path d="M112.996 23.5697C112.996 22.9951 112.614 22.4375 111.546 22.4375H109.472C108.611 22.4375 107.87 22.3617 107.362 22.1368C107.003 21.9657 106.692 21.7073 106.459 21.3851C106.226 21.063 106.077 20.6875 106.027 20.293C105.926 19.266 106.667 18.3809 107.895 17.415L108.413 17.7402C108.127 18.0748 107.972 18.5026 107.978 18.9433C107.978 19.403 108.281 19.6891 109.122 19.6891H111.428C114.436 19.6891 115.485 20.8579 115.485 22.5696C115.485 24.5796 113.634 26.5725 109.541 26.5407C108.279 26.5407 106.533 26.2791 105.841 25.1078C105.746 24.934 105.692 24.7416 105.68 24.5442C105.669 24.3468 105.701 24.1493 105.775 23.9658C106.183 22.9877 107.824 23.4768 107.824 23.4768C107.636 23.7048 107.537 23.9932 107.545 24.2886C107.545 24.9977 108.196 25.6873 109.611 25.7949C111.839 25.9661 112.996 24.4255 112.996 23.5697ZM110.022 11.9327C112.832 11.9327 114.147 13.2531 114.147 15.1115C114.147 16.8917 112.822 18.2635 110.017 18.2635C107.213 18.2635 105.887 16.9284 105.887 15.1115C105.887 13.2947 107.213 11.9327 110.022 11.9327ZM108.692 15.1115C108.692 16.5102 109.091 17.3538 110 17.3538C110.91 17.3538 111.37 16.4931 111.37 15.0895C111.37 13.6859 110.9 12.8741 110.027 12.8741C109.154 12.8741 108.692 13.7031 108.692 15.1018V15.1115ZM115.36 11.8887L115.668 12.0867V13.6004H112.839V12.9548L115.36 11.8887Z" fill="white"/>
<path d="M117.461 9.35556L116.238 9.15994V8.32611L120.309 7.43848L120.627 7.63899L120.549 10.3972V14.295L120.608 14.5395V17.6132C120.608 18.8359 120.627 20.8679 120.666 21.7579H117.402C117.441 20.8679 117.461 18.8359 117.461 17.6132V9.35556ZM121.556 20.8483V21.7677H116.363V20.8483L118.182 20.4473H119.686L121.556 20.8483ZM126.569 15.3245V17.623C126.569 18.8848 126.589 20.8777 126.628 21.7677H123.366C123.405 20.8777 123.425 18.8848 123.425 17.623V15.5568C123.425 14.2779 123.163 13.8451 122.363 13.8451C121.63 13.8451 120.781 14.4564 119.972 15.4345H119.258V14.0187H120.549L119.789 14.5786C121.173 12.5809 122.263 11.9427 123.679 11.9427C125.418 11.9329 126.569 13.0479 126.569 15.3269V15.3245ZM125.652 20.4595L127.582 20.8532V21.7726H122.376V20.8532L124.161 20.4595H125.652Z" fill="white"/>
<path d="M133.531 20.4473C133.927 20.4266 134.304 20.2723 134.602 20.0096L135.091 20.4839C134.567 21.4865 133.646 22.0611 132.203 22.0611C130.415 22.0611 129.366 21.264 129.366 19.32C129.366 18.6329 129.386 18.0974 129.386 17.3344V13.5834H128.114V12.4072L130.447 12.1065L129.315 12.9012L130.562 9.46313H132.575L132.531 13.0137V19.1097C132.526 20.0365 132.946 20.4473 133.531 20.4473ZM134.594 12.2238V13.5761H130.968V12.2312L134.594 12.2238Z" fill="white"/>
<path d="M45.6433 15.7304L44.6798 15.4565C43.3252 15.0481 43.0317 14.6716 43.0317 14.1238C43.0317 13.4098 43.6186 13.0186 44.4989 13.0186C44.8661 13.008 45.2324 13.0601 45.5822 13.1726L45.8267 14.2216H47.6093L47.7022 12.7276C46.7429 12.2088 45.6701 11.9358 44.5796 11.9329C41.9191 11.9329 40.4593 13.3389 40.4593 15.1582C40.4593 16.6424 41.3225 17.6548 42.8483 18.0925L43.912 18.3981C45.2129 18.782 45.5773 19.188 45.5773 19.8066C45.5773 20.6013 44.9513 20.9706 43.8167 20.9706C43.3136 20.9727 42.815 20.8755 42.3495 20.6845L42.1539 19.5254H40.4153L40.3835 21.1515C41.4197 21.7626 42.6041 22.0765 43.8069 22.0587C46.5896 22.0587 48.2719 20.8581 48.2719 18.7723C48.2671 17.3173 47.5139 16.2903 45.6433 15.7304Z" fill="white"/>
<path d="M95.8982 15.7306L94.9348 15.4567C93.5801 15.0484 93.2867 14.6718 93.2867 14.1241C93.2867 13.41 93.8735 13.0188 94.7538 13.0188C95.1211 13.0083 95.4874 13.0604 95.8371 13.1729L96.0816 14.2219H97.8642L97.9571 12.7278C96.9964 12.2083 95.9218 11.9352 94.8296 11.9331C92.1692 11.9331 90.7094 13.3391 90.7094 15.1584C90.7094 16.6427 91.5726 17.655 93.0984 18.0927L94.1621 18.3984C95.463 18.7823 95.8273 19.1882 95.8273 19.8069C95.8273 20.6016 95.2013 20.9708 94.0667 20.9708C93.5636 20.9729 93.065 20.8757 92.5996 20.6847L92.4039 19.5257H90.6654L90.6311 21.1518C91.6676 21.7621 92.8518 22.076 94.0545 22.0589C96.8372 22.0589 98.5195 20.8583 98.5195 18.7725C98.522 17.3176 97.7713 16.2906 95.8982 15.7306Z" fill="white"/>
<defs>
<radialGradient id="paint0_radial_1988_11628" cx="0" cy="0" r="1" gradientUnits="userSpaceOnUse" gradientTransform="translate(31.3934 16.0332) rotate(180) scale(27.8986 39.1575)">
<stop stop-color="#FFB801"/>
<stop offset="0.0729167" stop-color="#FFBD01"/>
<stop offset="1" stop-color="#FF0F00"/>
</radialGradient>
<radialGradient id="paint1_radial_1988_11628" cx="0" cy="0" r="1" gradientUnits="userSpaceOnUse" gradientTransform="translate(27.5866 3.023) rotate(142.337) scale(15.4558 21.6778)">
<stop offset="0.125" stop-color="#701EB5"/>
<stop offset="0.421875" stop-color="#A62F9C"/>
<stop offset="1" stop-color="#FF4C01" stop-opacity="0.2"/>
</radialGradient>
</defs>
</svg>
